<svg width="21" height="19" viewBox="0 0 21 19" fill="none" xmlns="http://www.w3.org/2000/svg">
<path d="M18.375 2.96875C19.8105 2.96875 21 4.1582 21 5.59375V16.0938C21 17.5703 19.8105 18.7188 18.375 18.7188H2.625C1.14844 18.7188 0 17.5703 0 16.0938V2.96875C0 1.5332 1.14844 0.34375 2.625 0.34375H7.42383C8.12109 0.34375 8.77734 0.630859 9.26953 1.12305L11.1562 2.96875H18.375ZM19.6875 16.0938V5.59375C19.6875 4.89648 19.0723 4.28125 18.375 4.28125H10.582L8.36719 2.06641C8.12109 1.82031 7.79297 1.65625 7.42383 1.65625H2.625C1.88672 1.65625 1.3125 2.27148 1.3125 2.96875V16.0938C1.3125 16.832 1.88672 17.4062 2.625 17.4062H18.375C19.0723 17.4062 19.6875 16.832 19.6875 16.0938ZM10.0078 14.6172L6.72656 11.3359C6.48047 11.0898 6.48047 10.6387 6.72656 10.3926C6.84961 10.2695 7.01367 10.1875 7.21875 10.1875C7.38281 10.1875 7.54688 10.2695 7.66992 10.3926L9.84375 12.5664V7.5625C9.84375 7.23438 10.1309 6.90625 10.5 6.90625C10.8281 6.90625 11.1562 7.23438 11.1562 7.5625V12.5664L13.2891 10.3926C13.5352 10.1465 13.9863 10.1465 14.2324 10.3926C14.4785 10.6387 14.4785 11.0898 14.2324 11.3359L10.9512 14.6172C10.7051 14.8633 10.2539 14.8633 10.0078 14.6172Z" fill="black"/>
</svg>
