<svg width="20" height="19" viewBox="0 0 20 19" fill="none" xmlns="http://www.w3.org/2000/svg">
<path d="M4 2.751C3.99974 3.28143 3.78877 3.79004 3.41351 4.16492C3.03825 4.53981 2.52943 4.75027 1.999 4.75C1.46857 4.74974 0.959965 4.53877 0.585079 4.16351C0.210194 3.78825 -0.000264966 3.27943 2.50361e-07 2.749C0.000265467 2.21857 0.211233 1.70996 0.586494 1.33508C0.961754 0.960194 1.47057 0.749735 2.001 0.75C2.53143 0.750265 3.04004 0.961233 3.41492 1.33649C3.78981 1.71175 4.00027 2.22057 4 2.751ZM4.06 6.231H0.0600002V18.751H4.06V6.231ZM10.38 6.231H6.4V18.751H10.34V12.181C10.34 8.521 15.11 8.181 15.11 12.181V18.751H19.06V10.821C19.06 4.651 12 4.881 10.34 7.911L10.38 6.231Z" fill="#EC6C19"/>
</svg>
