<svg width="13" height="22" viewBox="0 0 13 22" fill="none" xmlns="http://www.w3.org/2000/svg">
<path d="M3.59375 6.59375C3.22461 6.59375 2.9375 6.30664 2.9375 5.9375C2.9375 4.13281 4.37305 2.65625 6.21875 2.65625C6.54688 2.65625 6.875 2.98438 6.875 3.3125C6.875 3.68164 6.54688 3.96875 6.21875 3.96875C5.11133 3.96875 4.25 4.87109 4.25 5.9375C4.25 6.30664 3.92188 6.59375 3.59375 6.59375ZM12.125 5.9375C12.125 9.01367 9.82812 11.5156 6.875 11.8438V20.375C6.875 20.7441 6.54688 21.0312 6.21875 21.0312C5.84961 21.0312 5.5625 20.7441 5.5625 20.375V11.8438C2.60938 11.5156 0.3125 9.01367 0.3125 5.9375C0.3125 2.69727 2.9375 0.03125 6.21875 0.03125C9.45898 0.03125 12.125 2.69727 12.125 5.9375ZM6.21875 10.5312C8.7207 10.5312 10.8125 8.48047 10.8125 5.9375C10.8125 3.43555 8.7207 1.34375 6.21875 1.34375C3.67578 1.34375 1.625 3.43555 1.625 5.9375C1.625 8.48047 3.67578 10.5312 6.21875 10.5312Z" fill="black"/>
</svg>
