<svg width="25" height="18" viewBox="0 0 25 18" fill="none" xmlns="http://www.w3.org/2000/svg">
<path d="M9.94232 5.16411V12.3335L16.4763 8.74839L9.94232 5.16411ZM24.4757 14.5903C24.1806 15.6364 23.3471 16.4452 22.2877 16.7314L22.2652 16.7362C19.6037 17.0627 16.5255 17.2492 13.4015 17.2492C13.0839 17.2492 12.7671 17.2476 12.4512 17.2436L12.4996 17.2444C12.2312 17.2476 11.9153 17.25 11.5977 17.25C8.47364 17.25 5.39376 17.0635 2.37055 16.7025L2.7323 16.7378C1.65122 16.446 0.817691 15.638 0.528457 14.6128L0.523456 14.5919C0.190044 12.8963 0 10.9449 0 8.951C0 8.88025 3.89112e-08 8.8095 0.000833567 8.73955V8.7508C0.000833567 8.69131 0 8.62055 0 8.5498C0 6.55586 0.190878 4.60532 0.55513 2.71349L0.523456 2.90967C0.818524 1.86365 1.65205 1.05481 2.71147 0.768585L2.73397 0.763763C5.39543 0.437334 8.47364 0.250803 11.5977 0.250803C11.9144 0.250803 12.2312 0.252411 12.5479 0.256432L12.4996 0.255629C12.768 0.252413 13.0847 0.25 13.4015 0.25C16.5264 0.25 19.6054 0.436531 22.6286 0.797531L22.2669 0.762154C23.3488 1.05321 24.1823 1.86204 24.4724 2.88715L24.4774 2.90806C24.81 4.60372 25 6.55505 25 8.54819C25 8.61895 25 8.6897 24.9992 8.75965V8.7492C24.9992 8.80869 25 8.87945 25 8.9502C25 10.9441 24.8091 12.8947 24.4449 14.7865L24.4757 14.5903Z" fill="#EC6C19"/>
</svg>
