<svg width="93" height="34" viewBox="0 0 93 34" fill="none" xmlns="http://www.w3.org/2000/svg">
<g clip-path="url(#clip0_2549_17736)">
<path d="M48.0572 15.0001V4.8361C48.0572 4.54294 48.293 4.30152 48.5869 4.30152H49.4104C49.7008 4.30152 49.94 4.53949 49.94 4.8361V15.0001C49.94 15.1553 49.817 15.2795 49.6632 15.2795H48.3374C48.1837 15.2795 48.0606 15.1553 48.0606 15.0001H48.0572Z" fill="#3A2A25"/>
<path d="M4.14828 6.84334C5.59369 6.84334 6.64955 7.17099 7.31929 7.84698C7.98903 8.52297 8.31365 9.58869 8.31365 11.0614V15.2794H4.14828C2.70288 15.2794 1.64701 14.9518 0.994357 14.2758C0.328035 13.6033 0 12.5341 0 11.0614C0 9.58869 0.328035 8.51952 0.994357 7.84698C1.64701 7.17099 2.70288 6.84334 4.14828 6.84334ZM1.77002 11.0614C1.77002 11.9547 1.95796 12.5996 2.34409 12.9893C2.71654 13.3963 3.32136 13.5998 4.14486 13.5998C4.96837 13.5998 6.53679 13.5998 6.53679 13.5998V11.0579C6.53679 9.28519 5.82263 8.51607 4.14486 8.51607C3.32136 8.51607 2.71654 8.71956 2.34409 9.11274C1.95454 9.51971 1.77002 10.1647 1.77002 11.0579V11.0614Z" fill="#3A2A25"/>
<path d="M8.31367 15.3589C8.31367 17.2868 7.38082 18.1352 5.20417 18.1352H2.29969C2.00924 18.1352 1.77005 17.8973 1.77005 17.6007V17.004C1.77005 16.7108 2.00582 16.4694 2.29969 16.4694H5.15975C6.1541 16.4694 6.55731 16.0762 6.55731 15.1519V11.6375H8.31367V15.3589Z" fill="#3A2A25"/>
<path d="M6.55388 15.2828H17.9394L18.3427 13.6032H6.55388V15.2828Z" fill="#3A2A25"/>
<path d="M33.7296 8.57127C34.0201 8.57127 34.2593 8.80925 34.2593 9.10586V11.0649C34.2593 12.8686 34.8504 13.6067 36.2787 13.6067C37.5225 13.6067 38.0795 13.01 38.0795 11.6305V9.1093C38.0795 8.81615 38.3153 8.57472 38.6091 8.57472H39.3233C39.6138 8.57472 39.8529 8.8127 39.8529 9.1093V11.0683C39.8529 12.8721 40.427 13.6102 41.8587 13.6102C43.1162 13.6102 43.6766 13.6102 43.6766 13.6102V7.5228C43.6766 7.22964 43.9124 6.98821 44.2062 6.98821H44.9204C45.2109 6.98821 45.45 7.22619 45.45 7.5228V15.007C45.45 15.1622 45.327 15.2863 45.1733 15.2863H42.2654C40.8986 15.2863 39.9486 14.8311 39.4361 13.9206C38.985 14.8311 38.1 15.2863 36.7776 15.2863C35.6124 15.2863 34.7718 14.9415 34.2593 14.2655V13.386H32.5029V9.1093C32.5029 8.81615 32.7387 8.57472 33.0325 8.57472H33.733L33.7296 8.57127Z" fill="#3A2A25"/>
<path d="M26.892 15.2829V13.6033H30.685C31.9288 13.6033 32.4857 13.0066 32.4857 11.627V9.10588C32.4857 8.81272 32.7215 8.57129 33.0154 8.57129L33.7296 8.57127C34.0201 8.57127 34.2593 8.80925 34.2593 9.10586V11.0649C34.2593 12.8686 34.8332 13.6067 36.265 13.6067C37.5224 13.6067 38.0828 13.0101 38.0828 11.6305V9.10933C38.0828 8.81617 38.3186 8.57474 38.6125 8.57474H39.3266C39.6171 8.57474 39.8563 8.81272 39.8563 9.10933V11.6305C39.8563 14.1862 38.8619 15.2864 36.6716 15.2864C35.3048 15.2864 34.3549 14.8311 33.8423 13.9206C33.3912 14.8311 32.5062 15.2864 31.1838 15.2864H26.8955L26.892 15.2829Z" fill="#3A2A25"/>
<path d="M18.3427 13.6032C19.771 13.6032 20.3484 12.8651 20.3484 11.0613L22.1184 11.627C22.1184 13.0065 22.6788 13.6032 23.9192 13.6032H27.7121V15.2828H23.4237C22.1013 15.2828 21.2163 14.8276 20.7653 13.9171C20.2527 14.8276 19.3062 15.2828 17.936 15.2828" fill="#3A2A25"/>
<path d="M24.4967 6.84334C25.9421 6.84334 26.998 7.17099 27.6677 7.84698C28.3375 8.52297 28.6621 9.58869 28.6621 11.0614V15.2794H24.4967C23.0513 15.2794 21.9955 14.9518 21.3428 14.2758C20.6765 13.6033 20.3484 12.534 20.3484 11.0613C20.3484 9.58864 20.6765 8.51952 21.3428 7.84698C21.9955 7.17099 23.0513 6.84334 24.4967 6.84334ZM22.1185 11.0614L22.1184 11.627C22.1184 11.627 21.9613 13.1825 22.1185 13.3411C22.4909 13.7481 23.6732 13.6033 24.4967 13.6033H26.8886V11.0614C26.8886 9.28864 26.1745 8.51952 24.4967 8.51952C23.6732 8.51952 23.0684 8.72301 22.6959 9.11619C22.3064 9.52316 22.1219 10.1681 22.1219 11.0614H22.1185Z" fill="#3A2A25"/>
<path d="M50.62 3.15983V3.35987C50.62 3.54266 50.4799 3.68062 50.2817 3.68062H47.6882C47.5071 3.68062 47.3704 3.53921 47.3704 3.35987V3.15983C47.3704 2.97704 47.5105 2.81839 47.6882 2.81839H47.8488V1.87338C47.8488 1.49055 48.1495 1.19049 48.5083 1.19049H49.8238C50.022 1.19049 50.1621 1.35259 50.1621 1.53194V1.73197C50.1621 1.91477 50.022 2.05272 49.8238 2.05272H48.686V2.81839H50.2817C50.4799 2.81839 50.62 2.98049 50.62 3.15983Z" fill="#3A2A25"/>
</g>
<path d="M0.0507742 32.177L4.52709 22.2613C4.61252 22.0716 4.79704 21.9509 5.00206 21.9509H6.4748C6.67982 21.9509 6.86434 22.0716 6.94977 22.2578L11.4398 32.1735C11.6004 32.5253 11.3441 32.9288 10.958 32.9288H10.1174C9.90892 32.9288 9.72098 32.8047 9.63556 32.615L8.79838 30.7319H2.69214L1.83788 32.615C1.75246 32.8047 1.56452 32.9254 1.35608 32.9254H0.529159C0.143034 32.9254 -0.109827 32.5253 0.0473571 32.1701L0.0507742 32.177ZM5.74014 23.9444L3.48831 28.9626H7.99538L5.74356 23.9444H5.74014Z" fill="#3A2A25"/>
<path d="M13.9103 29.7145C14.1153 29.7145 14.2998 29.8386 14.3886 30.0283C14.7919 30.8906 15.7418 31.2837 17.4571 31.2837C19.275 31.2837 20.1908 30.8285 20.1908 29.9352C20.1908 29.0419 19.3502 28.6488 16.989 28.2556C15.2805 27.959 14.0982 27.5796 13.4626 27.1105C12.81 26.6415 12.4819 25.9344 12.4819 25.0101C12.4819 22.8752 13.9444 21.8268 17.0368 21.8268C19.7295 21.8268 21.168 22.62 21.6874 24.5238C21.7797 24.8584 21.5166 25.1826 21.1749 25.1826H20.2454C20.0336 25.1826 19.8457 25.0515 19.7636 24.8549C19.4049 23.9996 18.513 23.6133 16.9173 23.6133C15.1917 23.6133 14.3374 24.0375 14.3374 24.8998C14.3374 25.2929 14.5561 25.6068 14.99 25.8241C15.424 26.0586 16.2031 26.2621 17.3205 26.469C19.1076 26.7967 20.3514 27.1899 21.0177 27.6624C21.6874 28.1314 22.0291 28.8384 22.0291 29.7938C22.0291 32.0046 20.5051 33.0703 17.2726 33.0703C14.4877 33.0703 13.0116 32.2701 12.4751 30.3767C12.3794 30.0421 12.6425 29.711 12.9877 29.711H13.9137L13.9103 29.7145Z" fill="#3A2A25"/>
<path d="M23.8777 32.3977V22.4855C23.8777 22.1923 24.1135 21.9509 24.4074 21.9509H26.5738C26.7856 21.9509 26.9804 22.0819 27.0624 22.2785L30.5956 30.8284L34.1117 22.2785C34.1937 22.0785 34.3851 21.9509 34.6004 21.9509H36.7804C37.0709 21.9509 37.3101 22.1889 37.3101 22.4855V32.3977C37.3101 32.6909 37.0743 32.9323 36.7804 32.9323H35.974C35.6836 32.9323 35.4444 32.6943 35.4444 32.3977V23.834L31.8052 32.6046C31.7232 32.8012 31.5319 32.9323 31.3166 32.9323H29.8917C29.6798 32.9323 29.4851 32.8047 29.4031 32.6046L25.7639 23.834V32.3977C25.7639 32.6909 25.5281 32.9323 25.2343 32.9323H24.4108C24.1203 32.9323 23.8811 32.6943 23.8811 32.3977H23.8777Z" fill="#3A2A25"/>
<path d="M44.8754 21.8096C46.8163 21.8096 48.2309 22.2476 49.1159 23.1443C50.0009 24.0376 50.4383 25.4827 50.4383 27.4417C50.4383 29.4007 50.0044 30.8285 49.1159 31.7253C48.2309 32.6185 46.8163 33.0738 44.8754 33.0738C42.9345 33.0738 41.5199 32.6185 40.6314 31.7253C39.7464 30.832 39.2954 29.4041 39.2954 27.4417C39.2954 25.4792 39.7464 24.0376 40.6314 23.1443C41.5165 22.251 42.9311 21.8096 44.8754 21.8096ZM41.1782 27.4417C41.1782 28.7764 41.472 29.749 42.0632 30.3595C42.6372 30.9699 43.5872 31.2838 44.8754 31.2838C46.1636 31.2838 47.1136 30.9699 47.7047 30.3595C48.2788 29.749 48.576 28.7764 48.576 27.4417C48.576 26.1069 48.2822 25.1205 47.7047 24.5101C47.1136 23.8996 46.167 23.5996 44.8754 23.5996C43.5838 23.5996 42.6372 23.8962 42.0632 24.5101C41.472 25.1205 41.1782 26.1104 41.1782 27.4417Z" fill="#3A2A25"/>
<rect width="36.7899" height="34" transform="translate(56)" fill="white"/>
<path d="M89.8526 28.9473L79.7723 16.907C79.3896 16.4518 78.9522 16.0448 78.4978 15.6654C78.4123 15.593 78.3167 15.5275 78.2005 15.4723C76.6867 14.7377 74.8723 15.124 73.7754 16.4104L72.0977 18.3832L85.0311 33.6654C85.3831 34.0827 86.0221 34.0862 86.3774 33.6654L89.8526 30.1061C90.1362 29.7716 90.1396 29.2784 89.8526 28.9438V28.9473Z" fill="url(#paint0_linear_2549_17736)"/>
<path d="M81.5626 4.7255C81.5626 4.7255 81.1867 4.29438 81.156 4.25644L79.403 2.18364C79.362 2.13535 79.3176 2.08707 79.2766 2.04223H79.28V2.03878C78.0807 0.655758 76.4097 -0.0202326 74.749 0.000460962C73.0815 0.000460962 71.4106 0.700595 70.2249 2.10086L67.8808 4.9014L66.9685 5.97746L56.3859 18.5454C56.1467 18.8282 56.0169 19.1903 56.0237 19.5594L56.1399 27.9989C56.1399 27.9989 56.1399 28.0127 56.1399 28.0196L56.2971 28.9129C56.3141 29.0198 56.4474 29.0543 56.5157 28.9715L74.814 7.3191L76.4268 5.42218C77.3426 4.34612 78.747 3.88051 80.0796 4.14263C80.3359 4.20471 80.5888 4.29093 80.8348 4.4082L81.5558 4.72205L81.5626 4.7255Z" fill="url(#paint1_linear_2549_17736)"/>
<path d="M76.6258 19.8281C77.7192 18.5416 79.5337 18.1553 81.0509 18.89L81.7172 19.2107L79.5815 16.6619C78.3856 15.2479 76.701 14.5477 75.0198 14.5615C73.3386 14.5477 71.654 15.2513 70.458 16.6619L58.3378 31.1406L58.0781 31.451L58.7274 32.2097C60.7468 34.5792 64.3894 34.5654 66.3918 32.1752L74.9856 21.8078L76.6258 19.8246V19.8281Z" fill="url(#paint2_linear_2549_17736)"/>
<path d="M92.5762 17.8866L81.546 4.71168L80.9241 4.41162C79.4104 3.677 77.5959 4.06328 76.4991 5.34973L74.8213 7.32252L87.7548 22.6047C88.1067 23.0221 88.7457 23.0255 89.1011 22.6047L92.5762 19.0454C92.8598 18.7109 92.8632 18.2177 92.5762 17.8832V17.8866Z" fill="url(#paint3_linear_2549_17736)"/>
<path d="M69.1932 28.8126L68.6225 29.1023C67.1225 29.868 65.3012 29.5196 64.1804 28.2573L57.2814 20.8835C57.2814 20.8835 56.9363 20.4834 56.4408 19.8247C56.0171 19.266 56.1709 18.8762 56.1709 18.8762C56.1709 18.8762 56.0068 19.0935 56 19.7764C56 20.0006 56.1469 28.1814 56.1469 28.1814C56.1606 28.8712 56.41 29.5369 56.8577 30.0577L58.7336 32.2443C60.7565 34.5999 64.382 34.5827 66.381 32.2064L66.9516 31.5269L69.1932 28.8126Z" fill="url(#paint4_linear_2549_17736)"/>
<defs>
<linearGradient id="paint0_linear_2549_17736" x1="73.8677" y1="15.1239" x2="93.1497" y2="37.8656" gradientUnits="userSpaceOnUse">
<stop stop-color="#741328"/>
<stop offset="0.03" stop-color="#781327"/>
<stop offset="0.33" stop-color="#A21C20"/>
<stop offset="0.6" stop-color="#C0221B"/>
<stop offset="0.84" stop-color="#D32518"/>
<stop offset="1" stop-color="#DA2717"/>
</linearGradient>
<linearGradient id="paint1_linear_2549_17736" x1="49.2272" y1="31.9583" x2="80.4213" y2="-0.824188" gradientUnits="userSpaceOnUse">
<stop offset="0.36" stop-color="#E8561A"/>
<stop offset="0.45" stop-color="#EB6A18"/>
<stop offset="0.56" stop-color="#EE7F17"/>
<stop offset="0.67" stop-color="#F08B16"/>
<stop offset="0.77" stop-color="#F19016"/>
</linearGradient>
<linearGradient id="paint2_linear_2549_17736" x1="63.5215" y1="30.5301" x2="80.8782" y2="13.4364" gradientUnits="userSpaceOnUse">
<stop offset="0.21" stop-color="#AD3418"/>
<stop offset="0.31" stop-color="#C63F18"/>
<stop offset="0.42" stop-color="#D84718"/>
<stop offset="0.53" stop-color="#E34C18"/>
<stop offset="0.66" stop-color="#E74E19"/>
<stop offset="1" stop-color="#DA2717"/>
</linearGradient>
<linearGradient id="paint3_linear_2549_17736" x1="76.5913" y1="4.06328" x2="95.8733" y2="26.805" gradientUnits="userSpaceOnUse">
<stop offset="0.11" stop-color="#E8561A"/>
<stop offset="0.34" stop-color="#ED8E1C"/>
<stop offset="0.63" stop-color="#F4CE1F"/>
<stop offset="0.77" stop-color="#F7E821"/>
</linearGradient>
<linearGradient id="paint4_linear_2549_17736" x1="55.9966" y1="26.4397" x2="69.1932" y2="26.4397" gradientUnits="userSpaceOnUse">
<stop stop-color="#F19016"/>
<stop offset="0.16" stop-color="#F08A16"/>
<stop offset="0.37" stop-color="#ED7A17"/>
<stop offset="0.61" stop-color="#E96018"/>
<stop offset="0.74" stop-color="#E74F1A"/>
<stop offset="1" stop-color="#CF3C16"/>
</linearGradient>
<clipPath id="clip0_2549_17736">
<rect width="51" height="17" fill="white" transform="translate(0 1.19049)"/>
</clipPath>
</defs>
</svg>
