<svg width="51" height="33" viewBox="0 0 51 33" fill="none" xmlns="http://www.w3.org/2000/svg">
<g clip-path="url(#clip0_2549_17971)">
<path d="M48.0572 14V3.83604C48.0572 3.54288 48.293 3.30145 48.5869 3.30145H49.4104C49.7008 3.30145 49.94 3.53943 49.94 3.83604V14C49.94 14.1553 49.817 14.2794 49.6632 14.2794H48.3374C48.1837 14.2794 48.0606 14.1553 48.0606 14H48.0572Z" fill="#3A2A25"/>
<path d="M4.14828 5.84328C5.59369 5.84328 6.64955 6.17093 7.31929 6.84692C7.98903 7.52291 8.31365 8.58863 8.31365 10.0613V14.2794H4.14828C2.70288 14.2794 1.64701 13.9517 0.994357 13.2757C0.328035 12.6032 0 11.534 0 10.0613C0 8.58863 0.328035 7.51946 0.994357 6.84692C1.64701 6.17093 2.70288 5.84328 4.14828 5.84328ZM1.77002 10.0613C1.77002 10.9546 1.95796 11.5996 2.34409 11.9893C2.71654 12.3963 3.32136 12.5997 4.14486 12.5997C4.96837 12.5997 6.53679 12.5997 6.53679 12.5997V10.0579C6.53679 8.28513 5.82263 7.51601 4.14486 7.51601C3.32136 7.51601 2.71654 7.7195 2.34409 8.11268C1.95454 8.51965 1.77002 9.1646 1.77002 10.0579V10.0613Z" fill="#3A2A25"/>
<path d="M8.31367 14.3588C8.31367 16.2867 7.38082 17.1352 5.20417 17.1352H2.29969C2.00924 17.1352 1.77005 16.8972 1.77005 16.6006V16.0039C1.77005 15.7108 2.00582 15.4693 2.29969 15.4693H5.15975C6.1541 15.4693 6.55731 15.0762 6.55731 14.1519V10.6374H8.31367V14.3588Z" fill="#3A2A25"/>
<path d="M6.55388 14.2827H17.9394L18.3427 12.6031H6.55388V14.2827Z" fill="#3A2A25"/>
<path d="M33.7296 7.57121C34.0201 7.57121 34.2593 7.80919 34.2593 8.10579V10.0648C34.2593 11.8686 34.8504 12.6067 36.2787 12.6067C37.5225 12.6067 38.0795 12.01 38.0795 10.6304V8.10924C38.0795 7.81608 38.3153 7.57466 38.6091 7.57466H39.3233C39.6138 7.57466 39.8529 7.81264 39.8529 8.10924V10.0682C39.8529 11.872 40.427 12.6101 41.8587 12.6101C43.1162 12.6101 43.6766 12.6101 43.6766 12.6101V6.52273C43.6766 6.22957 43.9124 5.98815 44.2062 5.98815H44.9204C45.2109 5.98815 45.45 6.22613 45.45 6.52273V14.0069C45.45 14.1621 45.327 14.2863 45.1733 14.2863H42.2654C40.8986 14.2863 39.9486 13.831 39.4361 12.9205C38.985 13.831 38.1 14.2863 36.7776 14.2863C35.6124 14.2863 34.7718 13.9414 34.2593 13.2654V12.3859H32.5029V8.10924C32.5029 7.81608 32.7387 7.57466 33.0325 7.57466H33.733L33.7296 7.57121Z" fill="#3A2A25"/>
<path d="M26.892 14.2829V12.6032H30.685C31.9288 12.6032 32.4857 12.0066 32.4857 10.627V8.10582C32.4857 7.81266 32.7215 7.57123 33.0154 7.57123L33.7296 7.57121C34.0201 7.57121 34.2593 7.80919 34.2593 8.10579V10.0648C34.2593 11.8686 34.8332 12.6067 36.265 12.6067C37.5224 12.6067 38.0828 12.01 38.0828 10.6304V8.10926C38.0828 7.8161 38.3186 7.57468 38.6125 7.57468H39.3266C39.6171 7.57468 39.8563 7.81266 39.8563 8.10926V10.6304C39.8563 13.1861 38.8619 14.2863 36.6716 14.2863C35.3048 14.2863 34.3549 13.831 33.8423 12.9205C33.3912 13.831 32.5062 14.2863 31.1838 14.2863H26.8955L26.892 14.2829Z" fill="#3A2A25"/>
<path d="M18.3427 12.6031C19.771 12.6031 20.3484 11.8651 20.3484 10.0613L22.1184 10.6269C22.1184 12.0065 22.6788 12.6031 23.9192 12.6031H27.7121V14.2828H23.4237C22.1013 14.2828 21.2163 13.8275 20.7653 12.917C20.2527 13.8275 19.3062 14.2828 17.936 14.2828" fill="#3A2A25"/>
<path d="M24.4967 5.84328C25.9421 5.84328 26.998 6.17093 27.6677 6.84692C28.3375 7.52291 28.6621 8.58863 28.6621 10.0613V14.2794H24.4967C23.0513 14.2794 21.9955 13.9517 21.3428 13.2757C20.6765 12.6032 20.3484 11.534 20.3484 10.0613C20.3484 8.58858 20.6765 7.51946 21.3428 6.84692C21.9955 6.17093 23.0513 5.84328 24.4967 5.84328ZM22.1185 10.0613L22.1184 10.6269C22.1184 10.6269 21.9613 12.1824 22.1185 12.3411C22.4909 12.748 23.6732 12.6032 24.4967 12.6032H26.8886V10.0613C26.8886 8.28857 26.1745 7.51946 24.4967 7.51946C23.6732 7.51946 23.0684 7.72295 22.6959 8.11613C22.3064 8.5231 22.1219 9.16805 22.1219 10.0613H22.1185Z" fill="#3A2A25"/>
<path d="M50.62 2.15977V2.35981C50.62 2.5426 50.4799 2.68056 50.2817 2.68056H47.6882C47.5071 2.68056 47.3704 2.53915 47.3704 2.35981V2.15977C47.3704 1.97698 47.5105 1.81833 47.6882 1.81833H47.8488V0.873319C47.8488 0.490487 48.1495 0.19043 48.5083 0.19043H49.8238C50.022 0.19043 50.1621 0.35253 50.1621 0.531874V0.731912C50.1621 0.914706 50.022 1.05266 49.8238 1.05266H48.686V1.81833H50.2817C50.4799 1.81833 50.62 1.98043 50.62 2.15977Z" fill="#3A2A25"/>
</g>
<path d="M0.0507742 31.1769L4.52709 21.2612C4.61252 21.0715 4.79704 20.9508 5.00206 20.9508H6.4748C6.67982 20.9508 6.86434 21.0715 6.94977 21.2577L11.4398 31.1734C11.6004 31.5252 11.3441 31.9287 10.958 31.9287H10.1174C9.90892 31.9287 9.72098 31.8046 9.63556 31.6149L8.79838 29.7317H2.69214L1.83788 31.6149C1.75246 31.8046 1.56452 31.9253 1.35608 31.9253H0.529159C0.143034 31.9253 -0.109827 31.5252 0.0473571 31.17L0.0507742 31.1769ZM5.74014 22.9442L3.48831 27.9624H7.99538L5.74356 22.9442H5.74014Z" fill="#3A2A25"/>
<path d="M13.9103 28.7144C14.1153 28.7144 14.2998 28.8385 14.3886 29.0282C14.7919 29.8904 15.7418 30.2836 17.4571 30.2836C19.275 30.2836 20.1908 29.8284 20.1908 28.9351C20.1908 28.0418 19.3502 27.6486 16.989 27.2555C15.2805 26.9588 14.0982 26.5795 13.4626 26.1104C12.81 25.6414 12.4819 24.9343 12.4819 24.01C12.4819 21.8751 13.9444 20.8266 17.0368 20.8266C19.7295 20.8266 21.168 21.6199 21.6874 23.5237C21.7797 23.8583 21.5166 24.1825 21.1749 24.1825H20.2454C20.0336 24.1825 19.8457 24.0514 19.7636 23.8548C19.4049 22.9995 18.513 22.6132 16.9173 22.6132C15.1917 22.6132 14.3374 23.0374 14.3374 23.8996C14.3374 24.2928 14.5561 24.6067 14.99 24.824C15.424 25.0585 16.2031 25.262 17.3205 25.4689C19.1076 25.7966 20.3514 26.1897 21.0177 26.6622C21.6874 27.1313 22.0291 27.8383 22.0291 28.7937C22.0291 31.0044 20.5051 32.0702 17.2726 32.0702C14.4877 32.0702 13.0116 31.27 12.4751 29.3766C12.3794 29.042 12.6425 28.7109 12.9877 28.7109H13.9137L13.9103 28.7144Z" fill="#3A2A25"/>
<path d="M23.8777 31.3976V21.4853C23.8777 21.1922 24.1135 20.9508 24.4074 20.9508H26.5738C26.7856 20.9508 26.9804 21.0818 27.0624 21.2784L30.5956 29.8283L34.1117 21.2784C34.1937 21.0784 34.3851 20.9508 34.6004 20.9508H36.7804C37.0709 20.9508 37.3101 21.1887 37.3101 21.4853V31.3976C37.3101 31.6907 37.0743 31.9322 36.7804 31.9322H35.974C35.6836 31.9322 35.4444 31.6942 35.4444 31.3976V22.8339L31.8052 31.6045C31.7232 31.8011 31.5319 31.9322 31.3166 31.9322H29.8917C29.6798 31.9322 29.4851 31.8046 29.4031 31.6045L25.7639 22.8339V31.3976C25.7639 31.6907 25.5281 31.9322 25.2343 31.9322H24.4108C24.1203 31.9322 23.8811 31.6942 23.8811 31.3976H23.8777Z" fill="#3A2A25"/>
<path d="M44.8754 20.8094C46.8163 20.8094 48.2309 21.2475 49.1159 22.1442C50.0009 23.0375 50.4383 24.4826 50.4383 26.4416C50.4383 28.4006 50.0044 29.8284 49.1159 30.7251C48.2309 31.6184 46.8163 32.0737 44.8754 32.0737C42.9345 32.0737 41.5199 31.6184 40.6314 30.7251C39.7464 29.8319 39.2954 28.404 39.2954 26.4416C39.2954 24.4791 39.7464 23.0375 40.6314 22.1442C41.5165 21.2509 42.9311 20.8094 44.8754 20.8094ZM41.1782 26.4416C41.1782 27.7763 41.472 28.7489 42.0632 29.3594C42.6372 29.9698 43.5872 30.2837 44.8754 30.2837C46.1636 30.2837 47.1136 29.9698 47.7047 29.3594C48.2788 28.7489 48.576 27.7763 48.576 26.4416C48.576 25.1068 48.2822 24.1204 47.7047 23.51C47.1136 22.8995 46.167 22.5994 44.8754 22.5994C43.5838 22.5994 42.6372 22.8961 42.0632 23.51C41.472 24.1204 41.1782 25.1103 41.1782 26.4416Z" fill="#3A2A25"/>
<defs>
<clipPath id="clip0_2549_17971">
<rect width="51" height="17" fill="white" transform="translate(0 0.19043)"/>
</clipPath>
</defs>
</svg>
